<svg version="1.2" xmlns="http://www.w3.org/2000/svg" viewBox="0 0 300 318" width="300" height="318">
	<title>Layer</title>
	<style>
		.s0 { fill: #00fe9c } 
	</style>
	<path id="Layer" fill-rule="evenodd" class="s0" d="m17.6 34.8c0-8.8 7.2-16 16-16h250.4c8.8 0 16 7.2 16 16v178.2c0 8.8-7.2 16-16 16h-250.4c-8.8 0-16-7.2-16-16zm34.8 148.3c0 6.7 5.4 12 12 12h188.9c6.6 0 12-5.3 12-12v-119.9c0-6.6-5.4-12-12-12h-188.9c-6.6 0-12 5.4-12 12z"/>
	<path id="Layer" fill-rule="evenodd" class="s0" d="m254.9 266.5h-80v-36.1h-32.8v36.1h-78.9c-4.9 0-9 14-9 21 0 7.2 4.1 11 9 11h191.7c5 0 9.1-3.8 9.1-11 0-7-4.1-21-9.1-21z"/>
	<path id="Layer" fill-rule="evenodd" class="s0" d="m158.4 129.2h10.6v9.6h-10.5c-0.8 5.7-3.1 11-6.4 15.4l7.4 7.4-6.8 6.8-7.4-7.4c-4.5 3.4-9.8 5.6-15.6 6.5v10.4h-9.7v-10.4c-5.8-0.8-11.2-3-15.7-6.3l-7.2 7.2-6.8-6.8 7.1-7.1c-3.4-4.5-5.7-9.9-6.6-15.7h-10.1v-9.7h10.2c0.9-5.8 3.2-11 6.7-15.5l-7.3-7.3 6.8-6.8 7.5 7.4c4.4-3.2 9.7-5.3 15.4-6.1v-10.8h9.7v10.9c5.7 0.8 10.9 3 15.3 6.2l7.7-7.6 6.8 6.8-7.6 7.5c3.4 4.4 5.7 9.7 6.5 15.4zm-15.9 4.8c0-9.8-7.9-17.6-17.7-17.6-9.8 0-17.7 7.8-17.7 17.6 0 9.7 7.9 17.6 17.7 17.6 9.8 0 17.7-7.9 17.7-17.6z"/>
	<path id="Layer" fill-rule="evenodd" class="s0" d="m225 118.6l7.4 7.5-6.9 6.7-7.3-7.5c-4.5 3-9.7 4.3-14.8 4l-2.8 9.9-9.3-2.5 2.8-9.9c-2.4-1.2-4.6-2.7-6.5-4.6-1.9-2-3.3-4.2-4.5-6.5l-9.8 2.6-2.4-9.3 9.9-2.6c-0.3-5.2 1.1-10.5 4.2-14.9l-7.2-7.3 6.8-6.8 7.3 7.4c4.5-2.9 9.7-4 14.8-3.6l2.9-10.2 9.2 2.6-2.8 10.2c2.2 1.2 4.3 2.6 6.1 4.4 1.9 1.9 3.3 4.1 4.4 6.4l10.4-2.7 2.4 9.3-10.4 2.7c0.3 5.1-1 10.2-3.9 14.7zm-5.9-13.5c0-7.8-6.3-14.2-14.1-14.2-7.9 0-14.2 6.4-14.2 14.2 0 7.8 6.3 14.2 14.2 14.2 7.8 0 14.1-6.4 14.1-14.2z"/>
</svg>