<svg version="1.2" xmlns="http://www.w3.org/2000/svg" viewBox="0 0 300 300" width="300" height="300">
	<title>database-svgrepo-com-svg</title>
	<style>
		.s0 { fill: #00fe9c } 
	</style>
	<g id="Layer">
		<g id="Layer">
			<path id="Layer" class="s0" d="m139.3 90.8c-66.7 0-120.6-20.3-120.6-45.4 0-25.1 53.9-45.4 120.6-45.4 66.7 0 120.6 20.3 120.6 45.4 0 25.1-53.9 45.4-120.6 45.4z"/>
			<path id="Layer" fill-rule="evenodd" class="s0" d="m139.9 207.8c-65.9-0.1-120.9-18.4-120.9-30.7v61.3c0 22.2 54.2 40.2 120.9 40.2 66.8 0 120.9-18 120.9-40.2v-61.3c0 12.3-54.9 30.6-120.9 30.6z"/>
			<path id="Layer" fill-rule="evenodd" class="s0" d="m140.5 113.5c-65.9 0-120.9-18.8-120.9-31.4v62.7c0 22.8 54.2 41.2 120.9 41.2 66.8 0 120.9-18.4 120.9-41.2v-62.7c0 12.6-55 31.4-120.9 31.4z"/>
		</g>
	</g>
</svg>